<svg width="279" height="308" viewBox="0 0 279 308" fill="none" xmlns="http://www.w3.org/2000/svg">
<g style="mix-blend-mode:multiply">
<path d="M42.9461 304.588C45.4798 308.207 50.468 309.088 54.0876 306.554L113.072 265.264C116.692 262.731 117.572 257.743 115.038 254.123C112.505 250.503 107.517 249.623 103.897 252.157L51.4661 288.858L14.7645 236.428C12.2308 232.808 7.24255 231.928 3.62295 234.461C0.00335693 236.995 -0.876923 241.983 1.6568 245.603L42.9461 304.588ZM278.556 13.1045C247.899 -4.92902 218.033 -2.35295 191.052 13.3049C164.62 28.6434 141.002 56.425 120.815 88.936C80.366 154.078 51.7022 241.486 41.6217 298.61L57.3782 301.39C67.1712 245.896 95.2192 160.488 134.408 97.3763C154.039 65.7603 175.971 40.5555 199.082 27.1435C221.644 14.0509 245.312 12.1124 270.444 26.8955L278.556 13.1045Z" fill="black"/>
</g>
</svg>
